<svg width="36" height="36" viewBox="0 0 36 36" fill="none" xmlns="http://www.w3.org/2000/svg">
<path d="M25.875 3.375H10.125C8.88236 3.375 7.875 4.38236 7.875 5.625V30.375C7.875 31.6176 8.88236 32.625 10.125 32.625H25.875C27.1176 32.625 28.125 31.6176 28.125 30.375V5.625C28.125 4.38236 27.1176 3.375 25.875 3.375Z" stroke="currentColor" stroke-width="2" stroke-linecap="round" stroke-linejoin="round"/>
<path d="M11.2505 7.875H24.7498V12.375H11.2505V7.875Z" stroke="currentColor" stroke-width="2" stroke-linecap="round" stroke-linejoin="round"/>
<path d="M11.8125 16.75C12.1922 16.75 12.5 17.0578 12.5 17.4375C12.5 17.8172 12.1922 18.125 11.8125 18.125C11.4328 18.125 11.125 17.8172 11.125 17.4375C11.125 17.0578 11.4328 16.75 11.8125 16.75Z" fill="currentColor" stroke="currentColor" stroke-width="2"/>
<path d="M18 16.75C18.3797 16.75 18.6875 17.0578 18.6875 17.4375C18.6875 17.8172 18.3797 18.125 18 18.125C17.6203 18.125 17.3125 17.8172 17.3125 17.4375C17.3125 17.0578 17.6203 16.75 18 16.75Z" fill="currentColor" stroke="currentColor" stroke-width="2"/>
<path d="M24.1875 19.125C25.1195 19.125 25.875 18.3695 25.875 17.4375C25.875 16.5055 25.1195 15.75 24.1875 15.75C23.2555 15.75 22.5 16.5055 22.5 17.4375C22.5 18.3695 23.2555 19.125 24.1875 19.125Z" fill="currentColor"/>
<path d="M11.8125 24.75C12.7445 24.75 13.5 23.9945 13.5 23.0625C13.5 22.1305 12.7445 21.375 11.8125 21.375C10.8805 21.375 10.125 22.1305 10.125 23.0625C10.125 23.9945 10.8805 24.75 11.8125 24.75Z" fill="currentColor"/>
<path d="M18 24.75C18.932 24.75 19.6875 23.9945 19.6875 23.0625C19.6875 22.1305 18.932 21.375 18 21.375C17.068 21.375 16.3125 22.1305 16.3125 23.0625C16.3125 23.9945 17.068 24.75 18 24.75Z" fill="currentColor"/>
<path d="M11.8125 30.375C12.7445 30.375 13.5 29.6195 13.5 28.6875C13.5 27.7555 12.7445 27 11.8125 27C10.8805 27 10.125 27.7555 10.125 28.6875C10.125 29.6195 10.8805 30.375 11.8125 30.375Z" fill="currentColor"/>
<path d="M18 30.375C18.932 30.375 19.6875 29.6195 19.6875 28.6875C19.6875 27.7555 18.932 27 18 27C17.068 27 16.3125 27.7555 16.3125 28.6875C16.3125 29.6195 17.068 30.375 18 30.375Z" fill="currentColor"/>
<path d="M25.875 23.0625C25.875 22.1305 25.1195 21.375 24.1875 21.375C23.2555 21.375 22.5 22.1305 22.5 23.0625V28.6875C22.5 29.6195 23.2555 30.375 24.1875 30.375C25.1195 30.375 25.875 29.6195 25.875 28.6875V23.0625Z" fill="currentColor"/>
</svg>
