<svg width="36" height="36" viewBox="0 0 36 36" fill="none" xmlns="http://www.w3.org/2000/svg">
<path d="M29.9971 30.25C29.7823 30.4104 29.5212 30.5 29.25 30.5H6.75C6.47877 30.5 6.21768 30.4104 6.00293 30.25H29.9971ZM30.25 6.00195C30.4107 6.21682 30.5 6.4785 30.5 6.75V29.25C30.5 29.5212 30.4104 29.7823 30.25 29.9971V12.5H5.75V29.9971C5.58956 29.7823 5.5 29.5212 5.5 29.25V6.75C5.5 6.4785 5.58927 6.21682 5.75 6.00195V12.25H30.25V6.00195ZM23.0625 17.874C23.0789 17.874 23.0952 17.8775 23.1104 17.8838L23.1514 17.9111C23.163 17.9227 23.1724 17.937 23.1787 17.9521C23.185 17.9673 23.1885 17.9836 23.1885 18C23.1885 18.0164 23.185 18.0327 23.1787 18.0479L23.1514 18.0889L16.4014 24.8389C16.3898 24.8505 16.3755 24.8599 16.3604 24.8662C16.3452 24.8725 16.3289 24.876 16.3125 24.876C16.2961 24.876 16.2798 24.8725 16.2646 24.8662C16.2495 24.8599 16.2352 24.8505 16.2236 24.8389L12.8486 21.4639C12.8251 21.4403 12.8115 21.4083 12.8115 21.375C12.8115 21.3417 12.8251 21.3097 12.8486 21.2861C12.8722 21.2626 12.9042 21.249 12.9375 21.249C12.9541 21.249 12.9703 21.2526 12.9854 21.2588L13.0264 21.2861L15.6055 23.8662L16.3125 24.5742L17.0195 23.8662L22.9736 17.9111C22.9852 17.8995 22.9995 17.8901 23.0146 17.8838C23.0298 17.8775 23.0461 17.874 23.0625 17.874ZM24.75 3.25C24.7832 3.25 24.8154 3.26269 24.8389 3.28613C24.8623 3.30958 24.875 3.34185 24.875 3.375V5.5H29.25C29.5212 5.5 29.7823 5.58956 29.9971 5.75H24.875V7.875C24.875 7.90815 24.8623 7.94042 24.8389 7.96387C24.8154 7.98731 24.7832 8 24.75 8C24.7168 8 24.6846 7.98731 24.6611 7.96387C24.6377 7.94042 24.625 7.90815 24.625 7.875V5.75H11.375V7.875C11.375 7.90815 11.3623 7.94042 11.3389 7.96387C11.3154 7.98731 11.2832 8 11.25 8C11.2168 8 11.1846 7.98731 11.1611 7.96387C11.1377 7.94042 11.125 7.90815 11.125 7.875V5.75H6.00293C6.21768 5.58956 6.47877 5.5 6.75 5.5H11.125V3.375C11.125 3.34185 11.1377 3.30957 11.1611 3.28613C11.1728 3.27444 11.1872 3.26599 11.2021 3.25977L11.25 3.25C11.2832 3.25 11.3154 3.26269 11.3389 3.28613C11.3623 3.30957 11.375 3.34185 11.375 3.375V5.5H24.625V3.375C24.625 3.34185 24.6377 3.30958 24.6611 3.28613C24.6728 3.27444 24.6872 3.26599 24.7021 3.25977L24.75 3.25Z" fill="currentColor" stroke="currentColor" stroke-width="2"/>
</svg>
