<svg width="36" height="36" viewBox="0 0 36 36" fill="none" xmlns="http://www.w3.org/2000/svg">
<mask id="path-1-inside-1_807_21045" fill="white">
<path d="M17.9998 11.2501C16.6648 11.2501 15.3598 11.6459 14.2497 12.3876C13.1397 13.1293 12.2745 14.1835 11.7636 15.417C11.2527 16.6504 11.1191 18.0076 11.3795 19.3169C11.64 20.6263 12.2828 21.829 13.2268 22.773C14.1709 23.717 15.3736 24.3599 16.683 24.6204C17.9923 24.8808 19.3495 24.7471 20.5829 24.2363C21.8163 23.7254 22.8705 22.8602 23.6122 21.7502C24.3539 20.6401 24.7498 19.3351 24.7498 18.0001C24.748 16.2104 24.0362 14.4946 22.7707 13.2291C21.5053 11.9637 19.7895 11.2519 17.9998 11.2501ZM17.9998 22.5001C17.1098 22.5001 16.2398 22.2361 15.4998 21.7417C14.7597 21.2472 14.183 20.5444 13.8424 19.7221C13.5018 18.8999 13.4127 17.9951 13.5863 17.1222C13.7599 16.2492 14.1885 15.4474 14.8178 14.8181C15.4472 14.1887 16.249 13.7602 17.1219 13.5865C17.9948 13.4129 18.8996 13.502 19.7219 13.8426C20.5442 14.1832 21.247 14.76 21.7414 15.5C22.2359 16.24 22.4998 17.11 22.4998 18.0001C22.4998 19.1935 22.0257 20.3381 21.1818 21.182C20.3379 22.026 19.1933 22.5001 17.9998 22.5001ZM30.3748 18.3038C30.3804 18.1013 30.3804 17.8988 30.3748 17.6963L32.4729 15.0751C32.583 14.9374 32.6591 14.7759 32.6953 14.6034C32.7314 14.431 32.7265 14.2525 32.6811 14.0823C32.3371 12.7893 31.8226 11.548 31.1511 10.3908C31.0631 10.2394 30.9411 10.1106 30.7946 10.0147C30.6481 9.91872 30.4813 9.85829 30.3073 9.83819L26.9717 9.46694C26.8329 9.32069 26.6923 9.18006 26.5498 9.04506L26.1561 5.701C26.1358 5.52693 26.0752 5.35999 25.979 5.2135C25.8828 5.06701 25.7537 4.94502 25.602 4.85725C24.4444 4.18696 23.2032 3.67296 21.9106 3.32866C21.7403 3.28337 21.5617 3.27874 21.3892 3.31514C21.2168 3.35153 21.0553 3.42794 20.9178 3.53819L18.3036 5.62506C18.1011 5.62506 17.8986 5.62506 17.6961 5.62506L15.0748 3.53116C14.9372 3.42114 14.7756 3.345 14.6032 3.30885C14.4308 3.2727 14.2522 3.27755 14.082 3.32303C12.7893 3.6676 11.548 4.18209 10.3906 4.85303C10.2392 4.94096 10.1104 5.06302 10.0144 5.2095C9.91847 5.35598 9.85804 5.52284 9.83794 5.69678L9.4667 9.03803C9.32045 9.17772 9.17982 9.31835 9.04482 9.45991L5.70076 9.84381C5.52668 9.86407 5.35974 9.92471 5.21325 10.0209C5.06676 10.1171 4.94477 10.2462 4.85701 10.3979C4.18671 11.5555 3.67271 12.7967 3.32841 14.0893C3.28313 14.2596 3.2785 14.4382 3.31489 14.6107C3.35129 14.7831 3.42769 14.9446 3.53795 15.0821L5.62482 17.6963C5.62482 17.8988 5.62482 18.1013 5.62482 18.3038L3.53091 20.9251C3.4209 21.0627 3.34475 21.2242 3.3086 21.3967C3.27245 21.5691 3.27731 21.7477 3.32279 21.9179C3.66674 23.2108 4.18126 24.4522 4.85279 25.6093C4.94072 25.7607 5.06278 25.8895 5.20926 25.9855C5.35574 26.0814 5.52259 26.1418 5.69654 26.1619L9.03216 26.5332C9.17185 26.6794 9.31248 26.8201 9.45404 26.9551L9.84357 30.2991C9.86382 30.4732 9.92446 30.6401 10.0207 30.7866C10.1169 30.9331 10.2459 31.0551 10.3976 31.1429C11.5552 31.8132 12.7965 32.3272 14.089 32.6715C14.2594 32.7168 14.438 32.7214 14.6104 32.685C14.7829 32.6486 14.9443 32.5722 15.0819 32.4619L17.6961 30.3751C17.8986 30.3807 18.1011 30.3807 18.3036 30.3751L20.9248 32.4732C21.0624 32.5832 21.224 32.6594 21.3964 32.6955C21.5689 32.7317 21.7474 32.7268 21.9176 32.6813C23.2105 32.3374 24.4519 31.8228 25.609 31.1513C25.7605 31.0634 25.8893 30.9413 25.9852 30.7948C26.0812 30.6484 26.1416 30.4815 26.1617 30.3076L26.5329 26.9719C26.6792 26.8332 26.8198 26.6926 26.9548 26.5501L30.2989 26.1563C30.473 26.1361 30.6399 26.0754 30.7864 25.9792C30.9329 25.883 31.0549 25.7539 31.1426 25.6023C31.8129 24.4447 32.3269 23.2034 32.6712 21.9108C32.7165 21.7405 32.7211 21.5619 32.6847 21.3895C32.6484 21.217 32.5719 21.0555 32.4617 20.918L30.3748 18.3038ZM28.1108 17.3898C28.1347 17.7963 28.1347 18.2039 28.1108 18.6104C28.094 18.8887 28.1812 19.1633 28.3554 19.381L30.3509 21.8743C30.1219 22.602 29.8288 23.3079 29.4748 23.9837L26.2967 24.3437C26.0199 24.3744 25.7644 24.5067 25.5795 24.7149C25.3088 25.0193 25.0205 25.3077 24.7161 25.5783C24.5078 25.7632 24.3755 26.0188 24.3448 26.2955L23.9919 29.4708C23.3161 29.825 22.6102 30.1181 21.8825 30.3469L19.3878 28.3515C19.1882 28.192 18.9402 28.1052 18.6847 28.1054H18.6172C18.2106 28.1293 17.8031 28.1293 17.3965 28.1054C17.1182 28.0886 16.8436 28.1758 16.6259 28.3501L14.1256 30.3469C13.3979 30.118 12.692 29.8248 12.0162 29.4708L11.6562 26.2969C11.6255 26.0202 11.4932 25.7646 11.285 25.5798C10.9805 25.3091 10.6922 25.0208 10.4215 24.7163C10.2367 24.5081 9.98112 24.3758 9.70435 24.3451L6.52904 23.9907C6.17493 23.315 5.88174 22.6091 5.65295 21.8813L7.64841 19.3866C7.82266 19.169 7.90985 18.8943 7.8931 18.616C7.8692 18.2095 7.8692 17.8019 7.8931 17.3954C7.90985 17.1171 7.82266 16.8424 7.64841 16.6248L5.65295 14.1258C5.88192 13.3982 6.1751 12.6923 6.52904 12.0165L9.70295 11.6565C9.97972 11.6257 10.2353 11.4935 10.4201 11.2852C10.6908 10.9808 10.9791 10.6925 11.2836 10.4218C11.4926 10.2368 11.6255 9.98066 11.6562 9.70319L12.0092 6.52928C12.6849 6.17518 13.3908 5.88199 14.1186 5.65319L16.6133 7.64866C16.8309 7.8229 17.1056 7.9101 17.3839 7.89335C17.7904 7.86944 18.198 7.86944 18.6045 7.89335C18.8828 7.9101 19.1575 7.8229 19.3751 7.64866L21.874 5.65319C22.6017 5.88216 23.3076 6.17535 23.9834 6.52928L24.3434 9.70319C24.3741 9.97996 24.5064 10.2355 24.7147 10.4204C25.0191 10.6911 25.3074 10.9794 25.5781 11.2838C25.763 11.4921 26.0185 11.6243 26.2953 11.6551L29.4706 12.008C29.8247 12.6837 30.1179 13.3897 30.3467 14.1174L28.3512 16.6121C28.1753 16.8316 28.088 17.1091 28.1065 17.3898H28.1108Z"/>
</mask>
<path d="M17.9998 11.2501C16.6648 11.2501 15.3598 11.6459 14.2497 12.3876C13.1397 13.1293 12.2745 14.1835 11.7636 15.417C11.2527 16.6504 11.1191 18.0076 11.3795 19.3169C11.64 20.6263 12.2828 21.829 13.2268 22.773C14.1709 23.717 15.3736 24.3599 16.683 24.6204C17.9923 24.8808 19.3495 24.7471 20.5829 24.2363C21.8163 23.7254 22.8705 22.8602 23.6122 21.7502C24.3539 20.6401 24.7498 19.3351 24.7498 18.0001C24.748 16.2104 24.0362 14.4946 22.7707 13.2291C21.5053 11.9637 19.7895 11.2519 17.9998 11.2501ZM17.9998 22.5001C17.1098 22.5001 16.2398 22.2361 15.4998 21.7417C14.7597 21.2472 14.183 20.5444 13.8424 19.7221C13.5018 18.8999 13.4127 17.9951 13.5863 17.1222C13.7599 16.2492 14.1885 15.4474 14.8178 14.8181C15.4472 14.1887 16.249 13.7602 17.1219 13.5865C17.9948 13.4129 18.8996 13.502 19.7219 13.8426C20.5442 14.1832 21.247 14.76 21.7414 15.5C22.2359 16.24 22.4998 17.11 22.4998 18.0001C22.4998 19.1935 22.0257 20.3381 21.1818 21.182C20.3379 22.026 19.1933 22.5001 17.9998 22.5001ZM30.3748 18.3038C30.3804 18.1013 30.3804 17.8988 30.3748 17.6963L32.4729 15.0751C32.583 14.9374 32.6591 14.7759 32.6953 14.6034C32.7314 14.431 32.7265 14.2525 32.6811 14.0823C32.3371 12.7893 31.8226 11.548 31.1511 10.3908C31.0631 10.2394 30.9411 10.1106 30.7946 10.0147C30.6481 9.91872 30.4813 9.85829 30.3073 9.83819L26.9717 9.46694C26.8329 9.32069 26.6923 9.18006 26.5498 9.04506L26.1561 5.701C26.1358 5.52693 26.0752 5.35999 25.979 5.2135C25.8828 5.06701 25.7537 4.94502 25.602 4.85725C24.4444 4.18696 23.2032 3.67296 21.9106 3.32866C21.7403 3.28337 21.5617 3.27874 21.3892 3.31514C21.2168 3.35153 21.0553 3.42794 20.9178 3.53819L18.3036 5.62506C18.1011 5.62506 17.8986 5.62506 17.6961 5.62506L15.0748 3.53116C14.9372 3.42114 14.7756 3.345 14.6032 3.30885C14.4308 3.2727 14.2522 3.27755 14.082 3.32303C12.7893 3.6676 11.548 4.18209 10.3906 4.85303C10.2392 4.94096 10.1104 5.06302 10.0144 5.2095C9.91847 5.35598 9.85804 5.52284 9.83794 5.69678L9.4667 9.03803C9.32045 9.17772 9.17982 9.31835 9.04482 9.45991L5.70076 9.84381C5.52668 9.86407 5.35974 9.92471 5.21325 10.0209C5.06676 10.1171 4.94477 10.2462 4.85701 10.3979C4.18671 11.5555 3.67271 12.7967 3.32841 14.0893C3.28313 14.2596 3.2785 14.4382 3.31489 14.6107C3.35129 14.7831 3.42769 14.9446 3.53795 15.0821L5.62482 17.6963C5.62482 17.8988 5.62482 18.1013 5.62482 18.3038L3.53091 20.9251C3.4209 21.0627 3.34475 21.2242 3.3086 21.3967C3.27245 21.5691 3.27731 21.7477 3.32279 21.9179C3.66674 23.2108 4.18126 24.4522 4.85279 25.6093C4.94072 25.7607 5.06278 25.8895 5.20926 25.9855C5.35574 26.0814 5.52259 26.1418 5.69654 26.1619L9.03216 26.5332C9.17185 26.6794 9.31248 26.8201 9.45404 26.9551L9.84357 30.2991C9.86382 30.4732 9.92446 30.6401 10.0207 30.7866C10.1169 30.9331 10.2459 31.0551 10.3976 31.1429C11.5552 31.8132 12.7965 32.3272 14.089 32.6715C14.2594 32.7168 14.438 32.7214 14.6104 32.685C14.7829 32.6486 14.9443 32.5722 15.0819 32.4619L17.6961 30.3751C17.8986 30.3807 18.1011 30.3807 18.3036 30.3751L20.9248 32.4732C21.0624 32.5832 21.224 32.6594 21.3964 32.6955C21.5689 32.7317 21.7474 32.7268 21.9176 32.6813C23.2105 32.3374 24.4519 31.8228 25.609 31.1513C25.7605 31.0634 25.8893 30.9413 25.9852 30.7948C26.0812 30.6484 26.1416 30.4815 26.1617 30.3076L26.5329 26.9719C26.6792 26.8332 26.8198 26.6926 26.9548 26.5501L30.2989 26.1563C30.473 26.1361 30.6399 26.0754 30.7864 25.9792C30.9329 25.883 31.0549 25.7539 31.1426 25.6023C31.8129 24.4447 32.3269 23.2034 32.6712 21.9108C32.7165 21.7405 32.7211 21.5619 32.6847 21.3895C32.6484 21.217 32.5719 21.0555 32.4617 20.918L30.3748 18.3038ZM28.1108 17.3898C28.1347 17.7963 28.1347 18.2039 28.1108 18.6104C28.094 18.8887 28.1812 19.1633 28.3554 19.381L30.3509 21.8743C30.1219 22.602 29.8288 23.3079 29.4748 23.9837L26.2967 24.3437C26.0199 24.3744 25.7644 24.5067 25.5795 24.7149C25.3088 25.0193 25.0205 25.3077 24.7161 25.5783C24.5078 25.7632 24.3755 26.0188 24.3448 26.2955L23.9919 29.4708C23.3161 29.825 22.6102 30.1181 21.8825 30.3469L19.3878 28.3515C19.1882 28.192 18.9402 28.1052 18.6847 28.1054H18.6172C18.2106 28.1293 17.8031 28.1293 17.3965 28.1054C17.1182 28.0886 16.8436 28.1758 16.6259 28.3501L14.1256 30.3469C13.3979 30.118 12.692 29.8248 12.0162 29.4708L11.6562 26.2969C11.6255 26.0202 11.4932 25.7646 11.285 25.5798C10.9805 25.3091 10.6922 25.0208 10.4215 24.7163C10.2367 24.5081 9.98112 24.3758 9.70435 24.3451L6.52904 23.9907C6.17493 23.315 5.88174 22.6091 5.65295 21.8813L7.64841 19.3866C7.82266 19.169 7.90985 18.8943 7.8931 18.616C7.8692 18.2095 7.8692 17.8019 7.8931 17.3954C7.90985 17.1171 7.82266 16.8424 7.64841 16.6248L5.65295 14.1258C5.88192 13.3982 6.1751 12.6923 6.52904 12.0165L9.70295 11.6565C9.97972 11.6257 10.2353 11.4935 10.4201 11.2852C10.6908 10.9808 10.9791 10.6925 11.2836 10.4218C11.4926 10.2368 11.6255 9.98066 11.6562 9.70319L12.0092 6.52928C12.6849 6.17518 13.3908 5.88199 14.1186 5.65319L16.6133 7.64866C16.8309 7.8229 17.1056 7.9101 17.3839 7.89335C17.7904 7.86944 18.198 7.86944 18.6045 7.89335C18.8828 7.9101 19.1575 7.8229 19.3751 7.64866L21.874 5.65319C22.6017 5.88216 23.3076 6.17535 23.9834 6.52928L24.3434 9.70319C24.3741 9.97996 24.5064 10.2355 24.7147 10.4204C25.0191 10.6911 25.3074 10.9794 25.5781 11.2838C25.763 11.4921 26.0185 11.6243 26.2953 11.6551L29.4706 12.008C29.8247 12.6837 30.1179 13.3897 30.3467 14.1174L28.3512 16.6121C28.1753 16.8316 28.088 17.1091 28.1065 17.3898H28.1108Z" stroke="currentColor" stroke-width="4" mask="url(#path-1-inside-1_807_21045)"/>
</svg>
