<svg width="24" height="25" viewBox="0 0 24 25" fill="none" xmlns="http://www.w3.org/2000/svg">
<path d="M9.80386 15.1168C9.62933 15.1168 9.4548 15.0525 9.31701 14.9147C8.56376 14.1615 8.15039 13.1602 8.15039 12.1038C8.15039 9.90839 9.93247 8.12631 12.1279 8.12631C13.1843 8.12631 14.1856 8.53968 14.9388 9.29293C15.0674 9.42153 15.1409 9.59606 15.1409 9.77978C15.1409 9.9635 15.0674 10.138 14.9388 10.2666L10.2907 14.9147C10.1529 15.0525 9.9784 15.1168 9.80386 15.1168ZM12.1279 9.5042C10.6949 9.5042 9.52828 10.6708 9.52828 12.1038C9.52828 12.5631 9.6477 13.0041 9.86816 13.3899L13.4139 9.84409C13.0281 9.62362 12.5872 9.5042 12.1279 9.5042Z" fill="currentColor"/>
<path d="M6.24859 18.0839C6.09242 18.0839 5.92708 18.0288 5.79847 17.9185C4.81558 17.0826 3.93373 16.0538 3.18048 14.8596C2.20677 13.3439 2.20677 10.8729 3.18048 9.34804C5.42185 5.83901 8.68286 3.8181 12.1276 3.8181C14.1485 3.8181 16.1419 4.51623 17.8872 5.82982C18.1903 6.05947 18.2546 6.49121 18.025 6.79435C17.7953 7.09748 17.3636 7.16179 17.0605 6.93214C15.554 5.79308 13.8454 5.19599 12.1276 5.19599C9.16053 5.19599 6.32207 6.97807 4.33791 10.0921C3.64896 11.1669 3.64896 13.0408 4.33791 14.1156C5.02685 15.1903 5.81685 16.1181 6.68951 16.8713C6.97428 17.1194 7.01102 17.5511 6.763 17.845C6.6344 18.0012 6.44149 18.0839 6.24859 18.0839Z" fill="currentColor"/>
<path d="M12.1278 20.3895C10.9061 20.3895 9.71194 20.1415 8.5637 19.6547C8.21463 19.5077 8.04929 19.1035 8.19626 18.7544C8.34324 18.4054 8.74742 18.24 9.09649 18.387C10.0702 18.8004 11.0898 19.0116 12.1187 19.0116C15.0857 19.0116 17.9242 17.2296 19.9083 14.1155C20.5973 13.0408 20.5973 11.1668 19.9083 10.0921C19.6236 9.64198 19.3113 9.21024 18.9806 8.80605C18.7417 8.5121 18.7877 8.08036 19.0816 7.83234C19.3756 7.59351 19.8073 7.63025 20.0553 7.93339C20.4136 8.37432 20.7626 8.85198 21.075 9.34803C22.0487 10.8637 22.0487 13.3347 21.075 14.8596C18.8336 18.3686 15.5726 20.3895 12.1278 20.3895Z" fill="currentColor"/>
<path d="M12.761 16.0262C12.4395 16.0262 12.1456 15.7966 12.0813 15.4659C12.0078 15.0892 12.2558 14.731 12.6324 14.6667C13.6429 14.483 14.488 13.6379 14.6717 12.6274C14.7452 12.2508 15.1034 12.0119 15.4801 12.0762C15.8567 12.1497 16.1047 12.508 16.0312 12.8846C15.7373 14.4738 14.4696 15.7323 12.8896 16.0262C12.8437 16.017 12.807 16.0262 12.761 16.0262Z" fill="currentColor"/>
<path d="M2.94153 21.9787C2.767 21.9787 2.59247 21.9144 2.45468 21.7766C2.18828 21.5102 2.18828 21.0693 2.45468 20.8029L9.31658 13.941C9.58297 13.6746 10.0239 13.6746 10.2903 13.941C10.5567 14.2074 10.5567 14.6483 10.2903 14.9147L3.42839 21.7766C3.2906 21.9144 3.11607 21.9787 2.94153 21.9787Z" fill="currentColor"/>
<path d="M14.4513 10.4687C14.2768 10.4687 14.1022 10.4044 13.9644 10.2666C13.6981 10.0002 13.6981 9.55929 13.9644 9.2929L20.8263 2.431C21.0927 2.1646 21.5337 2.1646 21.8001 2.431C22.0665 2.69739 22.0665 3.13831 21.8001 3.40471L14.9382 10.2666C14.8004 10.4044 14.6258 10.4687 14.4513 10.4687Z" fill="currentColor"/>
</svg>
