<svg width="36" height="36" viewBox="0 0 36 36" fill="none" xmlns="http://www.w3.org/2000/svg">
<path d="M29.1251 15.3125L29.8626 27.675C29.8876 28.0125 29.7251 28.2375 29.6376 28.3375C29.5376 28.45 29.3251 28.625 28.9751 28.625H25.5626L28.2626 15.3125H29.1251ZM30.5001 10.5L30.4876 10.525C30.5126 10.825 30.4876 11.1375 30.4126 11.45L21.2001 28.3625C20.9001 29.625 19.7751 30.5 18.4751 30.5H28.9751C30.5876 30.5 31.8626 29.1375 31.7376 27.525L30.5001 10.5Z" fill="currentColor"/>
<path d="M17.3123 5.79951C17.4373 5.29951 17.1248 4.78701 16.6248 4.66201C16.1248 4.54951 15.6123 4.84951 15.4873 5.34951L14.8623 7.93701H16.7873L17.3123 5.79951Z" fill="currentColor"/>
<path d="M25.5626 5.76293C25.6751 5.25043 25.3501 4.76293 24.8376 4.65043C24.3376 4.53793 23.8376 4.86293 23.7251 5.37543L23.1626 7.96293H25.0876L25.5626 5.76293Z" fill="currentColor"/>
<path d="M30.2747 9.66304C29.8622 8.66304 28.8872 7.95054 27.6872 7.95054H25.0872L24.3872 11.188C24.2872 11.6255 23.8997 11.9255 23.4747 11.9255C23.4122 11.9255 23.3372 11.9255 23.2747 11.9005C22.7747 11.788 22.4497 11.288 22.5497 10.788L23.1622 7.93804H16.7872L15.9997 11.188C15.8997 11.613 15.5122 11.9005 15.0872 11.9005C15.0122 11.9005 14.9372 11.888 14.8622 11.8755C14.3622 11.7505 14.0497 11.2505 14.1747 10.738L14.8497 7.92554H12.3122C11.0872 7.92554 9.99969 8.72554 9.63719 9.90054L4.37469 26.838C3.82469 28.6505 5.16219 30.5005 7.04969 30.5005H23.4747C24.7747 30.5005 25.8997 29.6255 26.1997 28.363L30.4122 11.4505C30.4872 11.138 30.5122 10.8255 30.4872 10.5255C30.4622 10.2255 30.3997 9.92554 30.2747 9.66304ZM21.3747 23.938H11.3747C10.8622 23.938 10.4372 23.513 10.4372 23.0005C10.4372 22.488 10.8622 22.063 11.3747 22.063H21.3747C21.8872 22.063 22.3122 22.488 22.3122 23.0005C22.3122 23.513 21.8872 23.938 21.3747 23.938ZM22.6247 18.938H12.6247C12.1122 18.938 11.6872 18.513 11.6872 18.0005C11.6872 17.488 12.1122 17.063 12.6247 17.063H22.6247C23.1372 17.063 23.5622 17.488 23.5622 18.0005C23.5622 18.513 23.1372 18.938 22.6247 18.938Z" fill="currentColor"/>
</svg>
