<svg width="24" height="24" viewBox="0 0 24 24" fill="none" xmlns="http://www.w3.org/2000/svg">
<path d="M7.83789 5.47803H18.9648C19.5071 5.47812 19.9557 5.80715 20.1436 6.26221L20.1514 6.27979C20.2517 6.5071 20.2802 6.78162 20.207 7.08643L17.1602 19.3198L17.1582 19.3276C17.0227 19.8972 16.5154 20.2974 15.916 20.2974H4.0293C3.22917 20.2974 2.62951 19.5573 2.77148 18.7759L2.80957 18.6196L6.61816 6.38916V6.38721C6.78507 5.84663 7.28548 5.47803 7.83789 5.47803Z" stroke="currentColor" stroke-width="1.5" stroke-miterlimit="10"/>
<mask id="path-2-inside-1_86_11279" fill="white">
<path d="M15.5723 21.0478H19.8964C21.0634 21.0478 21.977 20.0618 21.8956 18.8948L21.0001 6.57373"/>
</mask>
<path d="M15.5723 19.5478C14.7438 19.5478 14.0723 20.2194 14.0723 21.0478C14.0723 21.8763 14.7438 22.5478 15.5723 22.5478V19.5478ZM21.8956 18.8948L23.392 18.7904L23.3917 18.7861L21.8956 18.8948ZM22.4961 6.46499C22.436 5.63874 21.7176 5.01762 20.8913 5.07768C20.0651 5.13773 19.4439 5.85623 19.504 6.68247L22.4961 6.46499ZM15.5723 22.5478H19.8964V19.5478H15.5723V22.5478ZM19.8964 22.5478C21.9403 22.5478 23.5334 20.8174 23.392 18.7904L20.3993 18.9992C20.4207 19.3062 20.1864 19.5478 19.8964 19.5478V22.5478ZM23.3917 18.7861L22.4961 6.46499L19.504 6.68247L20.3996 19.0035L23.3917 18.7861Z" fill="currentColor" mask="url(#path-2-inside-1_86_11279)"/>
<path d="M9.85498 6.91675L10.7958 3.00879" stroke="currentColor" stroke-width="1.5" stroke-miterlimit="10" stroke-linecap="round" stroke-linejoin="round"/>
<path d="M15.916 6.92607L16.7664 3" stroke="currentColor" stroke-width="1.5" stroke-miterlimit="10" stroke-linecap="round" stroke-linejoin="round"/>
<path d="M8.06384 12.0015H15.3009" stroke="currentColor" stroke-width="1.5" stroke-miterlimit="10" stroke-linecap="round" stroke-linejoin="round"/>
<path d="M7.15918 15.6196H14.3962" stroke="currentColor" stroke-width="1.5" stroke-miterlimit="10" stroke-linecap="round" stroke-linejoin="round"/>
</svg>
