<svg width="24" height="24" viewBox="0 0 24 24" fill="none" xmlns="http://www.w3.org/2000/svg">
<path d="M21.0952 6.61905V8.80857C21.0952 10.2381 20.1904 11.1429 18.7609 11.1429H15.6666V4.81857C15.6666 3.81429 16.49 3 17.4942 3C18.4804 3.00905 19.3852 3.40714 20.0366 4.05857C20.6881 4.71905 21.0952 5.62381 21.0952 6.61905Z" stroke="currentColor"/>
<path fill-rule="evenodd" clip-rule="evenodd" d="M3 7.61557V20.5392C3 21.3054 3.85048 21.7392 4.44762 21.2777L5.99476 20.0961C6.35666 19.8191 6.86334 19.8561 7.18905 20.1884L8.69095 21.73C9.0438 22.09 9.62286 22.09 9.97572 21.73L11.4957 20.1792C11.8124 19.8561 12.319 19.8191 12.6719 20.0961L14.219 21.2777C14.8162 21.73 15.6667 21.2961 15.6667 20.5392V4.84623C15.6667 3.8308 16.481 3 17.4762 3H7.52381H6.61905C3.90476 3 3 4.65237 3 6.69246V7.61557ZM12.0476 10.4643H6.61905C6.2481 10.4643 5.94048 10.0542 5.94048 9.55955C5.94048 9.06494 6.2481 8.65479 6.61905 8.65479H12.0476C12.4186 8.65479 12.7262 9.06494 12.7262 9.55955C12.7262 10.0542 12.4186 10.4643 12.0476 10.4643ZM7.29761 14.0832H11.369C11.74 14.0832 12.0476 13.673 12.0476 13.1784C12.0476 12.6838 11.74 12.2736 11.369 12.2736H7.29761C6.92665 12.2736 6.61903 12.6838 6.61903 13.1784C6.61903 13.673 6.92665 14.0832 7.29761 14.0832Z" fill="currentColor"/>
<path d="M4.44762 21.2777L4.14414 20.8803L4.14185 20.8821L4.44762 21.2777ZM5.99476 20.0961L6.29824 20.4934L6.29861 20.4932L5.99476 20.0961ZM7.18905 20.1884L7.54719 19.8395L7.54614 19.8384L7.18905 20.1884ZM8.69095 21.73L8.33281 22.0789L8.33386 22.08L8.69095 21.73ZM9.97572 21.73L10.3328 22.08L10.3328 22.08L9.97572 21.73ZM11.4957 20.1792L11.1386 19.8292L11.1386 19.8292L11.4957 20.1792ZM12.6719 20.0961L12.3632 20.4894L12.3684 20.4934L12.6719 20.0961ZM14.219 21.2777L13.9156 21.675L13.9171 21.6762L14.219 21.2777ZM3.5 20.5392V7.61557H2.5V20.5392H3.5ZM4.14185 20.8821C3.89164 21.0755 3.5 20.9133 3.5 20.5392H2.5C2.5 21.6974 3.80932 22.403 4.7534 21.6733L4.14185 20.8821ZM5.69128 19.6987L4.14415 20.8803L4.7511 21.675L6.29824 20.4934L5.69128 19.6987ZM7.54614 19.8384C7.04656 19.3287 6.25671 19.266 5.69091 19.699L6.29861 20.4932C6.45662 20.3722 6.68011 20.3834 6.83197 20.5384L7.54614 19.8384ZM9.04908 21.3811L7.54719 19.8395L6.83092 20.5373L8.33281 22.0789L9.04908 21.3811ZM9.61864 21.38C9.46182 21.54 9.20485 21.54 9.04803 21.38L8.33386 22.08C8.88276 22.64 9.78391 22.64 10.3328 22.08L9.61864 21.38ZM11.1386 19.8292L9.61863 21.38L10.3328 22.08L11.8528 20.5291L11.1386 19.8292ZM12.9806 19.7027C12.4229 19.265 11.6298 19.328 11.1386 19.8292L11.8528 20.5291C11.9949 20.3841 12.2152 20.3733 12.3632 20.4894L12.9806 19.7027ZM14.5225 20.8803L12.9754 19.6987L12.3684 20.4934L13.9156 21.675L14.5225 20.8803ZM15.1667 20.5392C15.1667 20.8987 14.7763 21.0725 14.5209 20.8791L13.9171 21.6762C14.8561 22.3874 16.1667 21.6935 16.1667 20.5392H15.1667ZM15.1667 4.84623V20.5392H16.1667V4.84623H15.1667ZM17.4762 2.5C16.1954 2.5 15.1667 3.56417 15.1667 4.84623H16.1667C16.1667 4.09743 16.7665 3.5 17.4762 3.5V2.5ZM7.52381 3.5H17.4762V2.5H7.52381V3.5ZM6.61905 3.5H7.52381V2.5H6.61905V3.5ZM3.5 6.69246C3.5 5.73562 3.71357 4.94741 4.17332 4.40422C4.61992 3.87656 5.3675 3.5 6.61905 3.5V2.5C5.15631 2.5 4.09436 2.94963 3.41002 3.75817C2.73881 4.55119 2.5 5.60921 2.5 6.69246H3.5ZM3.5 7.61557V6.69246H2.5V7.61557H3.5ZM6.61905 10.9643H12.0476V9.96431H6.61905V10.9643ZM5.44048 9.55955C5.44048 9.90686 5.54774 10.2402 5.74066 10.4974C5.93267 10.7534 6.23781 10.9643 6.61905 10.9643V9.96431C6.61895 9.96431 6.61886 9.96431 6.61869 9.96428C6.61851 9.96426 6.61798 9.96417 6.61704 9.96391C6.61524 9.96341 6.61091 9.96197 6.60416 9.95812C6.59016 9.95014 6.5668 9.93226 6.54066 9.8974C6.48703 9.8259 6.44048 9.70683 6.44048 9.55955H5.44048ZM6.61905 8.15479C6.23781 8.15479 5.93267 8.36567 5.74066 8.62169C5.54774 8.87892 5.44048 9.21223 5.44048 9.55955H6.44048C6.44048 9.41226 6.48703 9.29319 6.54066 9.22169C6.5668 9.18684 6.59016 9.16895 6.60416 9.16097C6.61091 9.15712 6.61524 9.15568 6.61704 9.15518C6.61798 9.15492 6.61851 9.15484 6.61869 9.15481C6.61886 9.15479 6.61895 9.15479 6.61905 9.15479V8.15479ZM12.0476 8.15479H6.61905V9.15479H12.0476V8.15479ZM13.2262 9.55955C13.2262 9.21223 13.1189 8.87892 12.926 8.62169C12.734 8.36567 12.4289 8.15479 12.0476 8.15479V9.15479C12.0477 9.15479 12.0478 9.15479 12.048 9.15481C12.0482 9.15484 12.0487 9.15492 12.0496 9.15518C12.0514 9.15568 12.0558 9.15712 12.0625 9.16097C12.0765 9.16895 12.0999 9.18684 12.126 9.22169C12.1796 9.29319 12.2262 9.41226 12.2262 9.55955H13.2262ZM12.0476 10.9643C12.4289 10.9643 12.734 10.7534 12.926 10.4974C13.1189 10.2402 13.2262 9.90686 13.2262 9.55955H12.2262C12.2262 9.70683 12.1796 9.8259 12.126 9.8974C12.0999 9.93226 12.0765 9.95014 12.0625 9.95812C12.0558 9.96197 12.0514 9.96341 12.0496 9.96391C12.0487 9.96417 12.0482 9.96426 12.048 9.96428C12.0478 9.96431 12.0477 9.96431 12.0476 9.96431V10.9643ZM11.369 13.5832H7.29761V14.5832H11.369V13.5832ZM11.5476 13.1784C11.5476 13.3257 11.5011 13.4448 11.4474 13.5163C11.4213 13.5511 11.3979 13.569 11.3839 13.577C11.3772 13.5808 11.3728 13.5823 11.371 13.5828C11.3701 13.583 11.3696 13.5831 11.3694 13.5831C11.3692 13.5832 11.3691 13.5832 11.369 13.5832V14.5832C11.7503 14.5832 12.0554 14.3723 12.2474 14.1163C12.4403 13.859 12.5476 13.5257 12.5476 13.1784H11.5476ZM11.369 12.7736C11.3691 12.7736 11.3692 12.7736 11.3694 12.7737C11.3696 12.7737 11.3701 12.7738 11.371 12.774C11.3728 12.7745 11.3772 12.776 11.3839 12.7798C11.3979 12.7878 11.4213 12.8057 11.4474 12.8405C11.5011 12.912 11.5476 13.0311 11.5476 13.1784H12.5476C12.5476 12.8311 12.4403 12.4978 12.2474 12.2405C12.0554 11.9845 11.7503 11.7736 11.369 11.7736V12.7736ZM7.29761 12.7736H11.369V11.7736H7.29761V12.7736ZM7.11903 13.1784C7.11903 13.0311 7.16559 12.912 7.21921 12.8405C7.24535 12.8057 7.26872 12.7878 7.28272 12.7798C7.28947 12.776 7.2938 12.7745 7.2956 12.774C7.29653 12.7738 7.29706 12.7737 7.29725 12.7737C7.29742 12.7736 7.29751 12.7736 7.29761 12.7736V11.7736C6.91636 11.7736 6.61123 11.9845 6.41921 12.2405C6.22629 12.4978 6.11903 12.8311 6.11903 13.1784H7.11903ZM7.29761 13.5832C7.29751 13.5832 7.29742 13.5832 7.29725 13.5831C7.29706 13.5831 7.29653 13.583 7.2956 13.5828C7.2938 13.5823 7.28947 13.5808 7.28272 13.577C7.26872 13.569 7.24535 13.5511 7.21921 13.5163C7.16559 13.4448 7.11903 13.3257 7.11903 13.1784H6.11903C6.11903 13.5257 6.22629 13.859 6.41921 14.1163C6.61123 14.3723 6.91637 14.5832 7.29761 14.5832V13.5832Z" fill="currentColor"/>
</svg>
