<svg width="36" height="36" viewBox="0 0 36 36" fill="none" xmlns="http://www.w3.org/2000/svg">
<path d="M31.5424 9.90849V13.1806C31.5424 15.317 30.1903 16.6691 28.0539 16.6691H23.4297V7.21777C23.4297 5.71691 24.6601 4.5 26.161 4.5C27.6348 4.51352 28.9869 5.10846 29.9605 6.08198C30.934 7.06903 31.5424 8.42116 31.5424 9.90849Z" stroke="currentColor" stroke-width="2" stroke-miterlimit="10" stroke-linecap="round" stroke-linejoin="round"/>
<path d="M4.5 11.2606V30.1903C4.5 31.3126 5.77096 31.9481 6.66336 31.272L8.97552 29.5413C9.51637 29.1357 10.2736 29.1898 10.7603 29.6765L13.0048 31.9346C13.5321 32.4619 14.3976 32.4619 14.9249 31.9346L17.1965 29.663C17.6697 29.1898 18.4269 29.1357 18.9542 29.5413L21.2664 31.272C22.1588 31.9346 23.4297 31.2991 23.4297 30.1903V7.20425C23.4297 5.71691 24.6466 4.5 26.134 4.5H11.2606H9.90849C5.85212 4.5 4.5 6.9203 4.5 9.90849V11.2606Z" stroke="currentColor" stroke-width="2" stroke-miterlimit="10" stroke-linecap="round" stroke-linejoin="round"/>
<path d="M9.90869 13.9646H18.0214" stroke="currentColor" stroke-width="2" stroke-linecap="round" stroke-linejoin="round"/>
<path d="M10.9224 19.3735H17.0069" stroke="currentColor" stroke-width="2" stroke-linecap="round" stroke-linejoin="round"/>
</svg>
