<svg width="24" height="24" viewBox="0 0 24 24" fill="none" xmlns="http://www.w3.org/2000/svg">
<path d="M9.33214 14.4965C9.70411 14.6286 10.1049 14.6377 10.4818 14.5228C10.8587 14.4078 11.1943 14.1741 11.4444 13.8523V19.9999L4.77771 17.3219V12.8789L9.33214 14.4965Z" fill="currentColor"/>
<path fill-rule="evenodd" clip-rule="evenodd" d="M19.222 17.3219L12.5553 19.9999V13.8523C12.8054 14.1741 13.141 14.4078 13.5179 14.5228C13.8948 14.6377 14.2956 14.6286 14.6676 14.4965L19.222 12.8789V17.3219ZM12.1814 4.03255C12.0638 3.98915 11.9358 3.98915 11.8181 4.03255L4.59703 6.69693L4.58425 6.70108C4.48711 6.73946 4.40203 6.80613 4.33869 6.89351L2.12203 9.84683C2.06604 9.92129 2.02777 10.0091 2.01047 10.1027C1.99317 10.1963 1.99736 10.293 2.02267 10.3845C2.04799 10.476 2.09368 10.5597 2.15587 10.6283C2.21805 10.697 2.29488 10.7486 2.37981 10.7788L9.87979 13.4432C9.99337 13.4834 10.1161 13.4835 10.2297 13.4433C10.3433 13.4032 10.4418 13.3251 10.5103 13.2205L11.9998 10.9528L13.4887 13.2205C13.5573 13.3252 13.6558 13.4034 13.7695 13.4435C13.8833 13.4837 14.0061 13.4835 14.1198 13.4432L21.6198 10.7788C21.7047 10.7487 21.7816 10.6971 21.8439 10.6285C21.9061 10.5599 21.9519 10.4762 21.9772 10.3847C22.0026 10.2932 22.0068 10.1964 21.9896 10.1028C21.9723 10.0091 21.9341 9.92133 21.8781 9.84683L19.6614 6.89351C19.5951 6.80216 19.5051 6.7336 19.4025 6.69634L12.1814 4.03255ZM11.9998 9.29441L17.5237 7.25646L11.9998 5.2185L6.47591 7.25646L11.9998 9.29441Z" fill="currentColor"/>
</svg>
