<svg width="36" height="36" viewBox="0 0 36 36" fill="none" xmlns="http://www.w3.org/2000/svg">
<path fill-rule="evenodd" clip-rule="evenodd" d="M3.57036 16.3688L6.33362 17.3695V25.0187C6.33363 25.207 6.38765 25.3906 6.48816 25.544C6.58868 25.6974 6.73069 25.8129 6.89444 25.8745L17.7208 29.9472C17.8919 30.014 18.0785 30.0175 18.2517 29.9572L18.2633 29.9536L18.2758 29.949L29.1056 25.8745C29.2693 25.8129 29.4113 25.6974 29.5118 25.544C29.6124 25.3906 29.6664 25.207 29.6664 25.0187V17.3695L32.4296 16.3688C32.5571 16.3227 32.6724 16.2438 32.7658 16.1389C32.8592 16.0339 32.9278 15.906 32.9659 15.766C33.0039 15.626 33.0103 15.4781 32.9844 15.3348C32.9585 15.1916 32.9011 15.0572 32.8171 14.9433L29.4839 10.415C29.385 10.2813 29.2533 10.1808 29.1039 10.1252L18.2725 6.04979C18.096 5.9834 17.904 5.9834 17.7275 6.04979L6.89611 10.1252C6.74672 10.1807 6.61494 10.2812 6.51612 10.415L3.18287 14.9433C3.0989 15.0572 3.04153 15.1916 3.01563 15.3348C2.98974 15.4781 2.99609 15.626 3.03414 15.766C3.0722 15.906 3.14084 16.0339 3.2342 16.1389C3.32757 16.2438 3.4429 16.3227 3.57036 16.3688ZM15.7659 20.1037L17.1667 17.9301V27.8226L8.00025 24.3738V17.9727L14.8201 20.4433C14.9904 20.5048 15.1745 20.5049 15.345 20.4436C15.5154 20.3822 15.663 20.2636 15.7659 20.1037ZM9.71437 10.9811L18 14.0983L26.2856 10.9811L18 7.86381L9.71437 10.9811ZM20.2341 20.1037L18.8333 17.931V27.8235L27.9998 24.3747V17.9727L21.1799 20.4433C21.0096 20.5048 20.8255 20.5049 20.655 20.4436C20.4846 20.3822 20.337 20.2636 20.2341 20.1037ZM7.45026 12.0461L5.23115 15.061L9.82354 16.7247L14.7567 18.5116L16.6842 15.5202L16.5717 15.4776L7.45026 12.0452V12.0461ZM30.7689 15.061L28.5497 12.0452L19.3158 15.5202L21.2433 18.5116L30.7689 15.061Z" fill="currentColor"/>
</svg>
