<svg width="24" height="24" viewBox="0 0 24 24" fill="none" xmlns="http://www.w3.org/2000/svg">
<path d="M22.5 21H21.9375C21.8878 21 21.8401 20.9802 21.8049 20.9451C21.7698 20.9099 21.75 20.8622 21.75 20.8125V12.8208C21.7504 12.791 21.7437 12.7614 21.7305 12.7347C21.7172 12.708 21.6978 12.6848 21.6737 12.6671C21.6497 12.6494 21.6218 12.6377 21.5924 12.633C21.5629 12.6282 21.5327 12.6306 21.5044 12.6398C21.0742 12.775 20.6276 12.8504 20.1769 12.8639C20.1216 12.8639 20.0691 12.8663 20.0175 12.8663C19.1507 12.8683 18.2978 12.6482 17.5402 12.2269C17.4828 12.195 17.4183 12.1782 17.3527 12.1782C17.287 12.1782 17.2225 12.195 17.1652 12.2269C16.4077 12.6482 15.555 12.8683 14.6883 12.8663C13.8264 12.8675 12.9791 12.6447 12.2292 12.2198C12.1714 12.1871 12.1061 12.1699 12.0396 12.1699C11.9732 12.1699 11.9078 12.1871 11.85 12.2198C11.0889 12.6463 10.2306 12.8691 9.35813 12.8667C8.4905 12.8673 7.63778 12.6411 6.88454 12.2105C6.82625 12.1773 6.76035 12.1599 6.69329 12.1599C6.62623 12.1599 6.56032 12.1773 6.50204 12.2105C5.74879 12.6411 4.89608 12.8673 4.02844 12.8667C3.97735 12.8667 3.92579 12.8667 3.87047 12.8644H3.86766C3.40116 12.8504 2.93902 12.77 2.49516 12.6258C2.46705 12.6167 2.4372 12.6144 2.40802 12.619C2.37885 12.6237 2.35119 12.6351 2.32729 12.6525C2.30339 12.6699 2.28394 12.6926 2.27051 12.7189C2.25708 12.7453 2.25005 12.7744 2.25001 12.8039V20.8125C2.25001 20.8622 2.23025 20.9099 2.19509 20.9451C2.15992 20.9802 2.11223 21 2.06251 21H1.52344C1.11844 21 0.768755 21.3113 0.750943 21.7162C0.746384 21.8175 0.762379 21.9186 0.797965 22.0134C0.83355 22.1083 0.887987 22.195 0.95799 22.2682C1.02799 22.3414 1.11211 22.3997 1.20527 22.4396C1.29842 22.4794 1.39869 22.5 1.50001 22.5H22.4766C22.8816 22.5 23.2313 22.1887 23.2491 21.7838C23.2536 21.6825 23.2376 21.5814 23.202 21.4866C23.1665 21.3917 23.112 21.305 23.042 21.2318C22.972 21.1586 22.8879 21.1003 22.7947 21.0604C22.7016 21.0206 22.6013 21 22.5 21ZM10.5 17.8125C10.5 17.8622 10.4803 17.9099 10.4451 17.9451C10.4099 17.9802 10.3622 18 10.3125 18H6.18751C6.13778 18 6.09009 17.9802 6.05492 17.9451C6.01976 17.9099 6.00001 17.8622 6.00001 17.8125V14.8125C6.00001 14.6633 6.05927 14.5202 6.16476 14.4148C6.27025 14.3093 6.41332 14.25 6.56251 14.25H9.93751C10.0867 14.25 10.2298 14.3093 10.3353 14.4148C10.4407 14.5202 10.5 14.6633 10.5 14.8125V17.8125ZM17.8125 21H14.4375C14.3878 21 14.3401 20.9802 14.3049 20.9451C14.2698 20.9099 14.25 20.8622 14.25 20.8125V14.8125C14.25 14.6633 14.3093 14.5202 14.4148 14.4148C14.5202 14.3093 14.6633 14.25 14.8125 14.25H17.4375C17.5867 14.25 17.7298 14.3093 17.8353 14.4148C17.9407 14.5202 18 14.6633 18 14.8125V20.8125C18 20.8622 17.9803 20.9099 17.9451 20.9451C17.9099 20.9802 17.8622 21 17.8125 21ZM23.0892 7.98187L21.0773 3.36516C20.5505 2.23219 19.3472 1.5 18.0117 1.5H5.98594C4.65047 1.5 3.44719 2.23219 2.92032 3.36516L0.908443 7.98187C0.486568 8.89172 1.04391 9.82594 1.04438 9.82641L1.05751 9.8475C1.08047 9.88406 1.12126 9.94125 1.1461 9.97781C1.14844 9.98063 1.15032 9.98391 1.15266 9.98719L1.38704 10.2708C1.3958 10.2815 1.40519 10.2917 1.41516 10.3012L1.64954 10.5277L1.66922 10.5445C1.80687 10.6625 1.95409 10.7688 2.10938 10.8623V10.8647C2.61953 11.1737 3.20073 11.346 3.79688 11.3648H3.91266C4.81466 11.3665 5.6838 11.0263 6.34501 10.4128L6.36047 10.3983C6.42953 10.3332 6.52083 10.297 6.61571 10.297C6.71059 10.297 6.80189 10.3332 6.87094 10.3983L6.88641 10.4128C7.55466 11.0253 8.42822 11.3651 9.33469 11.3651C10.2412 11.3651 11.1147 11.0253 11.783 10.4128C11.8523 10.3486 11.9433 10.313 12.0377 10.313C12.1322 10.313 12.2232 10.3486 12.2925 10.4128C12.9588 11.0234 13.8291 11.3629 14.7328 11.3649C15.6365 11.3669 16.5084 11.0312 17.1773 10.4236C17.2456 10.3603 17.3353 10.3252 17.4284 10.3252C17.5214 10.3252 17.6111 10.3603 17.6794 10.4236C18.349 11.0349 19.2247 11.371 20.1314 11.3648H20.2481C20.8293 11.3431 21.3948 11.1703 21.8888 10.8633C21.9333 10.8366 21.9759 10.8084 22.0191 10.7803C22.3522 10.5557 22.6422 10.2729 22.875 9.94547L22.9566 9.82219C22.9647 9.80969 22.9722 9.79656 22.9791 9.78281C23.0569 9.62437 23.4741 8.80969 23.0892 7.98187Z" fill="currentColor"/>
</svg>
