<svg width="36" height="36" viewBox="0 0 36 36" fill="none" xmlns="http://www.w3.org/2000/svg">
<path d="M31.5 31.5V16.875M4.5 16.875V31.5M2.25 32.625H33.75M20.25 32.625V21.9375C20.25 21.4899 20.4278 21.0607 20.7443 20.7443C21.0607 20.4278 21.4899 20.25 21.9375 20.25H26.4375C26.8851 20.25 27.3143 20.4278 27.6307 20.7443C27.9472 21.0607 28.125 21.4899 28.125 21.9375V32.625M26.8924 3.375H9.10758C7.57547 3.375 6.19172 4.21875 5.59687 5.51672L2.55234 12.1641C1.52719 14.4007 3.22945 16.9348 5.87039 17.0156H6.01102C8.21883 17.0156 10.0083 15.2452 10.0083 13.3432C10.0083 15.2416 11.7984 17.0156 14.0062 17.0156C16.2141 17.0156 18 15.3717 18 13.3432C18 15.2416 19.7895 17.0156 21.9973 17.0156C24.2051 17.0156 25.9952 15.3717 25.9952 13.3432C25.9952 15.3717 27.7847 17.0156 29.9925 17.0156H30.1296C32.7705 16.9334 34.4728 14.3993 33.4477 12.1641L30.4031 5.51672C29.8083 4.21875 28.4245 3.375 26.8924 3.375ZM9.5625 20.25H15.1875C15.6351 20.25 16.0643 20.4278 16.3807 20.7443C16.6972 21.0607 16.875 21.4899 16.875 21.9375V28.125H7.875V21.9375C7.875 21.4899 8.05279 21.0607 8.36926 20.7443C8.68572 20.4278 9.11495 20.25 9.5625 20.25Z" stroke="currentColor" stroke-width="2" stroke-linecap="round" stroke-linejoin="round"/>
</svg>
